<svg xmlns="http://www.w3.org/2000/svg" viewBox="0 0 86.17 80.32"><defs><style>.cls-1{fill:#f4b95f;}.cls-2{fill:#ed9e36;}.cls-3{fill:#fff;}.cls-4{fill:none;stroke:#000;stroke-miterlimit:10;stroke-width:0.5px;}</style></defs><title>ghost1</title><g id="Layer_4" data-name="Layer 4"><path class="cls-1" d="M26.29,37.85c-.26,0-1,.75-1.16.9q-1.36,1.11-2.64,2.31c-1.67,1.57-3.93,3.64-4.37,6a2.2,2.2,0,0,0,1.15,2.39,6.46,6.46,0,0,0,2,.74c1.18.2,1.54-1,2-1.84.77-1.37,1.57-2.72,2.36-4.08-1.67,2.88-4.31,6.81-3.51,10.4.66,2.91,4,3.14,6.48,2.91,0,0,3.25.14,5.54-9.46h.95S29.13,62.79,41,61.5c0,0,7.1,1,5.88-12.1l.54-.47S56,64.48,62.52,54.54c0,0,2.37-3.11-3.44-9.87,0,0,7.84,10.21,8.58,2.23,0,0-1.29-5.67-9.73-8Z"/><path class="cls-2" d="M25.66,33.05A20.68,20.68,0,0,1,27,26.45c2.55-7,9.08-8.53,15.75-8.25,4.39.18,9.08.95,12.29,4,5.48,5.22,6.07,16.27,0,21.23a15.24,15.24,0,0,1-7.17,3c-5.15.85-11.32.7-16-1.85C27.27,42.14,25.55,37.7,25.66,33.05Z"/><path class="cls-1" d="M25.36,31.8a20.39,20.39,0,0,1,1.31-6.6c2.59-7,9.23-8.53,16-8.25,4.46.18,9.23.95,12.49,4,5.56,5.22,6.16,16.27,0,21.23a15.6,15.6,0,0,1-7.28,3c-5.22.84-11.5.7-16.26-1.85C27,40.89,25.25,36.45,25.36,31.8Z"/><circle cx="36.49" cy="31.59" r="2.69"/><circle cx="48.31" cy="31.59" r="2.69"/><circle class="cls-3" cx="36.83" cy="31.26" r="0.52"/><circle class="cls-3" cx="48.65" cy="31.19" r="0.52"/><path class="cls-4" d="M44.43,38a2.51,2.51,0,0,1-2.14,2.12,1.59,1.59,0,0,1-.78,0,1.74,1.74,0,0,1-.54-.28,3.17,3.17,0,0,1-1.15-1.69"/></g></svg>