<?xml version="1.0" encoding="utf-8"?>
<!-- Generator: Adobe Illustrator 24.0.0, SVG Export Plug-In . SVG Version: 6.00 Build 0)  -->
<svg version="1.1" id="Layer_1" xmlns="http://www.w3.org/2000/svg" xmlns:xlink="http://www.w3.org/1999/xlink" x="0px" y="0px"
	 viewBox="0 0 90.6 80.3" style="enable-background:new 0 0 90.6 80.3;" xml:space="preserve">
<style type="text/css">
	.st0{fill:#F1BBD5;}
	.st1{opacity:0.5;fill:#E27FB4;enable-background:new    ;}
	.st2{fill:#F1BCD6;}
	.st3{fill:#FFFFFF;}
	.st4{fill:none;stroke:#000000;stroke-width:0.5;stroke-miterlimit:10;}
</style>
<title>ghost</title>
<path class="st0" d="M29.7,40.8c-0.3,0-1,0.8-1.2,0.9c-0.9,0.7-1.8,1.5-2.6,2.3c-1.7,1.6-3.9,3.6-4.4,6c-0.2,1,0.3,1.9,1.2,2.4
	c0.6,0.4,1.3,0.6,2,0.7c1.2,0.2,1.5-1,2-1.8c0.8-1.4,1.6-2.7,2.4-4.1c-1.7,2.9-4.3,6.8-3.5,10.4c0.6,2.9,4,3.2,6.5,2.9
	c0,0,3.2,0.1,5.5-9.5h0.9c0,0-5.9,14.7,5.9,13.4c0,0,7.1,1,5.9-12.1l0.5-0.5c0,0,8.7,15.6,15.1,5.6c0,0,2.4-3.1-3.5-9.9
	c0,0,7.8,10.2,8.6,2.2c0,0-1.3-5.7-9.7-8L29.7,40.8z"/>
<path class="st1" d="M29,36c0.1-2.3,0.5-4.5,1.3-6.6c2.5-7,9.1-8.5,15.8-8.2c4.4,0.2,9.1,1,12.3,4c5.5,5.2,6.1,16.3,0,21.2
	c-2.1,1.6-4.6,2.6-7.2,3c-5.1,0.8-11.3,0.7-16-1.8C30.7,45.1,28.9,40.7,29,36z"/>
<path class="st2" d="M28.7,34.8c0.1-2.3,0.5-4.5,1.3-6.6c2.6-7,9.2-8.5,16-8.2c4.5,0.2,9.2,1,12.5,4c5.6,5.2,6.2,16.3,0,21.2
	c-2.1,1.6-4.6,2.6-7.3,3C46,49,39.7,48.9,35,46.3C30.4,43.9,28.6,39.4,28.7,34.8z"/>
<path d="M36.6,32.9c0.2-0.1,0.4-0.2,0.6-0.1l0.8,0.1l2.3,0.2c0.4,0,0.9,0,1,0.6c0.1,0.8,0,1.6-0.2,2.3c-0.1,0.6-0.6,1-1.2,1.1
	c-1.1,0.2-2.2-0.2-2.9-1c-0.2-0.4-0.4-0.8-0.5-1.2c-0.1-0.4-0.2-0.9-0.2-1.3C36.4,33.2,36.5,33,36.6,32.9z"/>
<path d="M53.1,33c-0.2-0.1-0.4-0.1-0.6-0.1L51.7,33l-2.3,0.2c-0.4,0-0.9,0-1,0.6c-0.1,0.8-0.1,1.5,0.1,2.3c0.1,0.6,0.6,1,1.2,1.1
	c1.1,0.2,2.2-0.1,2.9-0.9c0.2-0.4,0.4-0.8,0.5-1.2c0.1-0.4,0.2-0.9,0.2-1.3C53.4,33.4,53.3,33.1,53.1,33z"/>
<circle class="st3" cx="40.2" cy="34.2" r="0.5"/>
<circle class="st3" cx="52" cy="34.2" r="0.5"/>
<path class="st4" d="M42.2,43.1c0.2-1.1,1.1-2,2.2-2.1c0.3-0.1,0.5-0.1,0.8,0c0.2,0.1,0.4,0.2,0.5,0.3c0.6,0.4,1,1,1.1,1.7"/>
</svg>
